<svg xmlns="http://www.w3.org/2000/svg" width="256" height="256" viewBox="0 0 100 100"><rect width="100" height="100" rx="20" fill="#050216"></rect><path fill="#fff" d="M30.43 60.22L30.43 60.22Q29.94 60.57 29.14 60.85Q28.33 61.13 27.35 61.13L27.35 61.13Q26.23 61.13 25.36 60.78Q24.48 60.43 24.13 59.66L24.13 59.66Q20.35 51.82 17.62 45.31Q14.89 38.80 13.21 34.53L13.21 34.53L12.93 34.53Q12.72 39.78 12.48 44.30Q12.23 48.81 11.95 53.11Q11.67 57.42 11.39 61.83Q11.11 66.24 10.83 71.28L10.83 71.28Q10.41 71.42 9.75 71.56Q9.08 71.70 8.31 71.70L8.31 71.70Q6.77 71.70 6.14 71.07Q5.51 70.44 5.51 69.25L5.51 69.25Q5.51 68.55 5.62 66.24Q5.72 63.93 5.93 60.64Q6.14 57.35 6.39 53.36Q6.63 49.37 6.95 45.24Q7.26 41.11 7.58 37.12Q7.89 33.13 8.17 29.84L8.17 29.84Q8.73 29.35 9.78 28.93Q10.83 28.51 12.16 28.51L12.16 28.51Q15.38 28.51 16.64 31.10L16.64 31.10Q17.97 33.83 19.34 36.88Q20.70 39.92 22.07 43.07Q23.43 46.22 24.73 49.30Q26.02 52.38 27.21 55.18L27.21 55.18L27.49 55.18Q29.03 51.47 30.57 47.86Q32.11 44.26 33.58 40.90Q35.05 37.54 36.38 34.60Q37.71 31.66 38.76 29.21L38.76 29.21Q39.39 28.86 40.37 28.68Q41.35 28.51 42.19 28.51L42.19 28.51Q45.48 28.51 45.97 30.75L45.97 30.75Q46.25 32.01 46.60 34.91Q46.95 37.82 47.30 41.60Q47.65 45.38 47.97 49.72Q48.28 54.06 48.56 58.09Q48.84 62.11 49.05 65.50Q49.26 68.90 49.40 70.86L49.40 70.86Q48.14 71.70 46.46 71.70L46.46 71.70Q45.41 71.70 44.61 71.17Q43.80 70.65 43.66 69.25L43.66 69.25Q43.31 64.14 43.03 59.10Q42.75 54.06 42.51 49.51Q42.26 44.96 42.05 41.14Q41.84 37.33 41.70 34.67L41.70 34.67L41.42 34.67Q40.65 36.63 39.64 39.08Q38.62 41.53 37.26 44.61Q35.89 47.69 34.21 51.58Q32.53 55.46 30.43 60.22ZM94.49 51.19L94.49 66.38Q94.49 67.64 93.75 68.48Q93.02 69.32 91.55 70.09L91.55 70.09Q89.80 70.93 86.72 71.56Q83.64 72.19 80.48 72.19L80.48 72.19Q75.59 72.19 71.53 70.86Q67.47 69.53 64.53 66.80Q61.59 64.07 59.98 59.91Q58.37 55.74 58.37 50.07L58.37 50.07Q58.37 44.47 60.05 40.27Q61.73 36.07 64.63 33.30Q67.53 30.54 71.39 29.17Q75.23 27.81 79.58 27.81L79.58 27.81Q82.52 27.81 85 28.30Q87.49 28.79 89.24 29.59Q90.99 30.40 91.97 31.38Q92.95 32.36 92.95 33.34L92.95 33.34Q92.95 34.32 92.39 35.02Q91.83 35.72 91.06 36.07L91.06 36.07Q89.17 34.81 86.58 33.72Q83.98 32.64 79.93 32.64L79.93 32.64Q76.56 32.64 73.70 33.76Q70.83 34.88 68.72 37.05Q66.63 39.22 65.44 42.51Q64.25 45.80 64.25 50.07L64.25 50.07Q64.25 54.62 65.47 57.88Q66.70 61.13 68.90 63.23Q71.11 65.33 74.08 66.34Q77.06 67.36 80.56 67.36L80.56 67.36Q83.08 67.36 85.31 66.94Q87.56 66.52 88.81 65.89L88.81 65.89L88.81 53.01L78.25 53.01Q78.03 52.66 77.83 52.06Q77.62 51.47 77.62 50.77L77.62 50.77Q77.62 49.58 78.18 48.91Q78.73 48.25 79.78 48.25L79.78 48.25L91.47 48.25Q92.74 48.25 93.61 49.05Q94.49 49.86 94.49 51.19L94.49 51.19Z"></path></svg>